<?xml version="1.0" encoding="UTF-8"?><svg xmlns="http://www.w3.org/2000/svg" xmlns:xlink="http://www.w3.org/1999/xlink" viewBox="0 0 905.08 783.82"><defs><style>.cls-1,.cls-2,.cls-3,.cls-4,.cls-5,.cls-6,.cls-7{fill:#c49a6c;}.cls-8{fill:#3c2415;}.cls-9{fill:none;stroke:#603913;stroke-miterlimit:10;}.cls-10{fill:#754c29;filter:url(#drop-shadow-3);}.cls-11{fill:#603913;filter:url(#drop-shadow-2);}.cls-2{filter:url(#drop-shadow-8);}.cls-3{filter:url(#drop-shadow-6);}.cls-4{filter:url(#drop-shadow-4);}.cls-5{filter:url(#drop-shadow-7);}.cls-6{filter:url(#drop-shadow-9);}.cls-7{filter:url(#drop-shadow-5);}.cls-12{fill:#8b5e3c;filter:url(#drop-shadow-1);}.cls-13{filter:url(#drop-shadow-12);}.cls-14{filter:url(#drop-shadow-11);}.cls-15{filter:url(#drop-shadow-10);}</style><filter id="drop-shadow-1" filterUnits="userSpaceOnUse"><feOffset dx="2" dy="2"/><feGaussianBlur result="blur" stdDeviation="3"/><feFlood flood-color="#000" flood-opacity=".55"/><feComposite in2="blur" operator="in"/><feComposite in="SourceGraphic"/></filter><filter id="drop-shadow-2" filterUnits="userSpaceOnUse"><feOffset dx="2" dy="2"/><feGaussianBlur result="blur-2" stdDeviation="3"/><feFlood flood-color="#000" flood-opacity=".55"/><feComposite in2="blur-2" operator="in"/><feComposite in="SourceGraphic"/></filter><filter id="drop-shadow-3" filterUnits="userSpaceOnUse"><feOffset dx="2" dy="2"/><feGaussianBlur result="blur-3" stdDeviation="3"/><feFlood flood-color="#000" flood-opacity=".55"/><feComposite in2="blur-3" operator="in"/><feComposite in="SourceGraphic"/></filter><filter id="drop-shadow-4" filterUnits="userSpaceOnUse"><feOffset dx="2" dy="2"/><feGaussianBlur result="blur-4" stdDeviation="3"/><feFlood flood-color="#000" flood-opacity=".55"/><feComposite in2="blur-4" operator="in"/><feComposite in="SourceGraphic"/></filter><filter id="drop-shadow-5" filterUnits="userSpaceOnUse"><feOffset dx="2" dy="2"/><feGaussianBlur result="blur-5" stdDeviation="3"/><feFlood flood-color="#000" flood-opacity=".55"/><feComposite in2="blur-5" operator="in"/><feComposite in="SourceGraphic"/></filter><filter id="drop-shadow-6" filterUnits="userSpaceOnUse"><feOffset dx="2" dy="2"/><feGaussianBlur result="blur-6" stdDeviation="3"/><feFlood flood-color="#000" flood-opacity=".55"/><feComposite in2="blur-6" operator="in"/><feComposite in="SourceGraphic"/></filter><filter id="drop-shadow-7" filterUnits="userSpaceOnUse"><feOffset dx="2" dy="2"/><feGaussianBlur result="blur-7" stdDeviation="3"/><feFlood flood-color="#000" flood-opacity=".55"/><feComposite in2="blur-7" operator="in"/><feComposite in="SourceGraphic"/></filter><filter id="drop-shadow-8" filterUnits="userSpaceOnUse"><feOffset dx="2" dy="2"/><feGaussianBlur result="blur-8" stdDeviation="3"/><feFlood flood-color="#000" flood-opacity=".55"/><feComposite in2="blur-8" operator="in"/><feComposite in="SourceGraphic"/></filter><filter id="drop-shadow-9" filterUnits="userSpaceOnUse"><feOffset dx="2" dy="2"/><feGaussianBlur result="blur-9" stdDeviation="3"/><feFlood flood-color="#000" flood-opacity=".55"/><feComposite in2="blur-9" operator="in"/><feComposite in="SourceGraphic"/></filter><filter id="drop-shadow-10" filterUnits="userSpaceOnUse"><feOffset dx="2" dy="2"/><feGaussianBlur result="blur-10" stdDeviation="3"/><feFlood flood-color="#000" flood-opacity=".55"/><feComposite in2="blur-10" operator="in"/><feComposite in="SourceGraphic"/></filter><filter id="drop-shadow-11" filterUnits="userSpaceOnUse"><feOffset dx="2" dy="2"/><feGaussianBlur result="blur-11" stdDeviation="3"/><feFlood flood-color="#000" flood-opacity=".55"/><feComposite in2="blur-11" operator="in"/><feComposite in="SourceGraphic"/></filter><filter id="drop-shadow-12" filterUnits="userSpaceOnUse"><feOffset dx="2" dy="2"/><feGaussianBlur result="blur-12" stdDeviation="3"/><feFlood flood-color="#000" flood-opacity=".55"/><feComposite in2="blur-12" operator="in"/><feComposite in="SourceGraphic"/></filter></defs><g id="hexagon_base"><path class="cls-8" d="M905.08,391.91L678.81,0H226.27L0,391.91l226.27,391.91h452.54l226.27-391.91Z"/></g><g id="captains_wheel"><path class="cls-12" d="M321.36,718.17l15.28-27.24c35.97,13.96,75.08,21.64,115.99,21.64s79.91-7.65,115.84-21.58l15.25,27.18c12.17,21.69,39.88,29.48,61.57,17.31h0c21.69-12.17,29.48-39.88,17.31-61.57l-15.28-27.23c65.25-49.94,110.74-124.36,122.77-209.55h31.17c24.87,0,45.22-20.35,45.22-45.22h0c0-24.87-20.35-45.22-45.22-45.22h-31.17c-12.03-85.19-57.52-159.61-122.77-209.55l15.28-27.23c12.17-21.69,4.38-49.4-17.31-61.57h0c-21.69-12.17-49.4-4.38-61.57,17.31l-15.25,27.18c-35.93-13.93-74.99-21.58-115.84-21.58s-80.02,7.67-115.99,21.64l-15.28-27.24c-12.17-21.69-39.88-29.48-61.57-17.31-21.69,12.17-29.48,39.88-17.31,61.57l15.33,27.33c-65.18,49.94-110.62,124.32-122.64,209.45h-31.35c-24.87,0-45.22,20.35-45.22,45.22h0c0,24.87,20.35,45.22,45.22,45.22h31.35c12.02,85.13,57.46,159.51,122.64,209.45l-15.33,27.33c-12.17,21.69-4.38,49.4,17.31,61.57,21.69,12.17,49.4,4.38,61.57-17.31Z"/><circle class="cls-9" cx="452.54" cy="391.91" r="309.17"/><circle class="cls-9" cx="452.54" cy="391.91" r="314.12"/></g><g id="gear_01"><path class="cls-11" d="M441.06,688.95l21.91,.04,9.4-29.93c9.85-.74,19.6-2,29.21-3.81l16.74,26.55,21.18-5.63,1.34-31.44c9.25-3.25,18.31-7,27.13-11.23l23.14,21.4,19-10.92-6.86-30.79c8.07-5.5,15.84-11.45,23.28-17.81l27.93,14.7,15.52-15.47-14.6-27.97c6.35-7.37,12.3-15.13,17.85-23.24l30.81,6.98,10.99-18.96-21.41-23.31c4.17-8.7,7.92-17.7,11.19-26.98l31.68-1.24,5.71-21.16-26.79-17.03c1.83-9.65,3.1-19.29,3.86-28.9l30.32-9.41,.04-21.91-30.29-9.52c-.74-9.74-1.99-19.38-3.77-28.89l26.87-16.95-5.63-21.18-31.82-1.36c-3.22-9.15-6.93-18.12-11.1-26.85l21.65-23.41-10.92-19-31.13,6.94c-5.45-7.99-11.33-15.69-17.63-23.06l14.85-28.22-15.47-15.52-28.23,14.73c-7.31-6.3-15-12.21-23.03-17.73l7.03-31.06-18.96-10.99-23.48,21.56c-8.65-4.16-17.59-7.89-26.81-11.15l-1.25-31.86-21.16-5.71-17.1,26.9c-9.62-1.83-19.23-3.12-28.8-3.88l-9.43-30.4-21.91-.04-9.53,30.32c-9.74,.72-19.38,1.97-28.89,3.73l-16.95-26.87-21.18,5.63-1.35,31.74c-9.18,3.21-18.17,6.92-26.93,11.1l-23.33-21.57-19,10.92,6.9,30.97c-8.04,5.46-15.78,11.38-23.2,17.7l-28.04-14.76-15.52,15.47,14.62,28.01c-6.36,7.36-12.33,15.1-17.89,23.19l-30.79-6.97-10.99,18.96,21.34,23.24c-4.21,8.73-7.98,17.75-11.27,27.06l-31.53,1.23-5.71,21.16,26.6,16.91c-1.86,9.72-3.17,19.43-3.94,29.1l-30.04,9.32-.04,21.91,29.96,9.41c.72,9.85,1.98,19.59,3.77,29.21l-26.54,16.74,5.63,21.18,31.37,1.34c3.25,9.28,7,18.37,11.23,27.22l-21.32,23.06,10.92,19,30.63-6.82c5.52,8.12,11.49,15.93,17.88,23.42l-14.61,27.75,15.47,15.52,27.75-14.48c7.42,6.41,15.23,12.41,23.39,18.01l-6.91,30.53,18.96,10.99,23.08-21.19c8.78,4.22,17.86,8.02,27.23,11.31l1.23,31.34,21.16,5.71,16.84-26.49c9.75,1.86,19.5,3.15,29.2,3.91l9.3,29.96Z"/></g><g id="Gear_02"><path class="cls-10" d="M465.45,638.67l12.08,26.29,20.05-2.58,5.02-28.5c8.92-1.85,17.69-4.18,26.26-6.97l18.49,22.28,18.7-7.68-2.53-28.91c8.08-4.08,15.91-8.59,23.48-13.51l23.72,16.81,16.07-12.26-9.95-27.35c6.72-6,13.12-12.36,19.16-19.07l27.3,10.11,12.35-16-16.69-23.84c4.92-7.5,9.44-15.31,13.55-23.39l29.01,2.7,7.79-18.65-22.37-18.77c2.78-8.46,5.13-17.13,7.01-26.02l28.82-4.92,2.69-20.03-26.54-12.37c.52-9.04,.53-18.02,.07-26.89l26.61-12.23-2.58-20.05-28.85-5.09c-1.84-8.82-4.14-17.49-6.9-25.97l22.55-18.71-7.68-18.7-29.26,2.56c-4.04-7.99-8.5-15.74-13.36-23.23l17-24-12.26-16.07-27.65,10.06c-5.94-6.66-12.24-12.99-18.88-18.99l10.21-27.59-16-12.35-24.06,16.85c-7.44-4.89-15.18-9.38-23.19-13.46l2.72-29.25-18.65-7.79-18.9,22.52c-8.41-2.77-17.03-5.12-25.86-6.99l-4.95-28.99-20.03-2.69-12.43,26.65c-9.01-.53-17.96-.55-26.8-.11l-12.26-26.68-20.05,2.58-5.09,28.87c-8.82,1.82-17.49,4.12-25.97,6.87l-18.71-22.55-18.7,7.68,2.56,29.2c-8.02,4.04-15.79,8.5-23.3,13.37l-23.92-16.95-16.07,12.26,10.01,27.5c-6.7,5.96-13.08,12.29-19.11,18.96l-27.41-10.15-12.35,16,16.72,23.87c-4.94,7.49-9.47,15.28-13.59,23.35l-28.99-2.7-7.79,18.65,22.3,18.71c-2.8,8.48-5.18,17.19-7.08,26.1l-28.69,4.89-2.69,20.03,26.35,12.29c-.54,9.11-.57,18.15-.12,27.09l-26.37,12.12,2.58,20.05,28.52,5.03c1.84,8.92,4.15,17.69,6.94,26.26l-22.28,18.48,7.68,18.7,28.85-2.53c4.08,8.1,8.6,15.96,13.52,23.55l-16.75,23.64,12.26,16.07,27.2-9.9c6.02,6.77,12.42,13.2,19.15,19.28l-10.04,27.13,16,12.35,23.65-16.56c7.55,4.97,15.41,9.53,23.55,13.68l-2.68,28.75,18.65,7.79,18.58-22.14c8.54,2.81,17.29,5.2,26.26,7.09l4.87,28.52,20.03,2.69,12.23-26.24c9.14,.53,18.21,.55,27.17,.09Z"/><g><path class="cls-9" d="M308.13,221.9c6.2-5.25,12.67-10.16,19.39-14.69l-2.87-13.08c-.06,.04-.12,.07-.18,.11l-22.75-16.14-15.34,11.69,9.26,25.48,12.5,6.63Z"/><path class="cls-9" d="M357.1,190.36c7.31-3.46,14.81-6.53,22.48-9.18l.61-13.35c-.05,.02-.1,.03-.15,.05l-17.85-21.54-17.84,7.32,2.35,27.01,10.41,9.69Z"/><path class="cls-9" d="M671.93,351.89c1.46,7.93,2.48,15.97,3.07,24.09l12.72,4.04c0-.05,0-.11,0-.16l25.42-11.66-2.45-19.13-26.7-4.72-12.05,7.54Z"/><path class="cls-9" d="M268.95,265.04c4.66-6.73,9.65-13.17,14.97-19.28l-6.16-11.89c-.06,.07-.13,.14-.2,.21l-26.05-9.66-11.79,15.26,15.54,22.21,13.69,3.15Z"/><path class="cls-9" d="M412.52,172.52c7.93-1.45,15.97-2.46,24.09-3.04l4.05-12.75c-.06,0-.11,0-.17,0l-11.66-25.41-19.13,2.45-4.72,26.7,7.54,12.04Z"/><path class="cls-9" d="M242.35,316.88c2.77-7.75,5.94-15.26,9.47-22.53l-9.01-9.88c-.05,.09-.1,.18-.14,.27l-27.65-2.59-7.44,17.8,20.76,17.44,14.02-.5Z"/><path class="cls-9" d="M470.68,169.69c7.98,.66,15.99,1.76,24,3.31l7.22-11.28s-.08-.02-.12-.03l-4.7-27.62-19.12-2.58-11.47,24.56,4.18,13.64Z"/><path class="cls-9" d="M654.03,296.54c3.46,7.29,6.53,14.77,9.18,22.41l13.31,.61s-.02-.06-.03-.09l21.61-17.91-7.32-17.84-27.01,2.35-9.75,10.47Z"/><path class="cls-9" d="M230.02,373.86c.67-8.06,1.78-16.15,3.36-24.25l-11.3-7.23c-.03,.12-.06,.23-.08,.35l-27.3,4.64-2.58,19.12,24.56,11.47,13.34-4.09Z"/><path class="cls-9" d="M579.36,208.55c6.68,4.62,13.08,9.57,19.16,14.84l11.86-6.14s-.06-.05-.08-.08l9.75-26.29-15.26-11.79-22.21,15.54-3.2,13.92Z"/><path class="cls-9" d="M527.58,182c7.68,2.74,15.12,5.88,22.32,9.36l9.86-8.99s-.05-.03-.08-.04l2.62-27.95-17.8-7.44-17.44,20.76,.51,14.3Z"/><path class="cls-9" d="M622.48,247.65c5.23,6.17,10.11,12.6,14.63,19.27l13.05-2.86s-.03-.05-.05-.07l16.24-22.9-11.69-15.34-25.48,9.26-6.71,12.64Z"/><path class="cls-9" d="M597.05,561.98c-6.22,5.29-12.71,10.22-19.45,14.79l2.86,13.05c.08-.05,.17-.1,.25-.16l22.66,16.07,15.34-11.69-9.26-25.48-12.4-6.58Z"/><path class="cls-9" d="M636.12,518.78c-4.65,6.74-9.63,13.19-14.94,19.32l6.13,11.84c.06-.07,.13-.14,.19-.21l26.07,9.67,11.79-15.26-15.54-22.21-13.7-3.15Z"/><path class="cls-9" d="M548.13,593.61c-7.36,3.5-14.93,6.6-22.65,9.29l-.61,13.32c.1-.03,.21-.06,.31-.1l17.7,21.36,17.84-7.32-2.35-27.01-10.25-9.54Z"/><path class="cls-9" d="M688.4,405.87l-13.57,4.16c-.65,8-1.74,16.04-3.29,24.08l11.25,7.2c.01-.06,.03-.12,.04-.18l27.55-4.68,2.58-19.12-24.56-11.47Z"/><path class="cls-9" d="M492.73,611.57c-8.02,1.48-16.15,2.51-24.36,3.1l-4.04,12.73c.13,0,.27,0,.4-.02l11.52,25.11,19.13-2.45,4.72-26.7-7.37-11.77Z"/><path class="cls-9" d="M662.6,466.94c-2.74,7.73-5.89,15.22-9.4,22.46l8.98,9.84c.03-.06,.07-.12,.1-.18l27.78,2.6,7.44-17.8-20.76-17.44-14.14,.51Z"/><path class="cls-9" d="M232.88,432.1c-1.47-8.02-2.49-16.15-3.07-24.36l-12.76-4.05c0,.14,0,.27,.02,.41l-25.1,11.52,2.45,19.13,26.7,4.72,11.77-7.37Z"/><path class="cls-9" d="M250.78,487.57c-3.5-7.39-6.61-14.97-9.29-22.72l-13.35-.61c.04,.12,.08,.25,.12,.38l-21.29,17.64,7.32,17.84,27.01-2.35,9.48-10.18Z"/><path class="cls-9" d="M282.4,536.56c-5.31-6.26-10.27-12.79-14.85-19.57l-13.08,2.87c.08,.12,.15,.24,.22,.36l-15.97,22.52,11.69,15.34,25.48-9.26,6.5-12.25Z"/><path class="cls-9" d="M377.52,602.26c-7.8-2.77-15.36-5.96-22.67-9.5l-9.86,9c.13,.06,.25,.13,.37,.2l-2.57,27.49,17.8,7.44,17.44-20.76-.5-13.86Z"/><path class="cls-9" d="M434.51,614.5c-8.09-.66-16.21-1.76-24.33-3.34l-7.22,11.27c.13,.03,.27,.06,.4,.09l4.63,27.22,19.12,2.58,11.47-24.56-4.07-13.27Z"/><path class="cls-9" d="M325.62,575.72c-6.79-4.69-13.28-9.72-19.45-15.08l-11.87,6.15c.11,.1,.22,.21,.33,.31l-9.58,25.84,15.26,11.79,22.21-15.54,3.1-13.47Z"/></g><g><path class="cls-9" d="M304.13,257.07c4.92-5.4,10.12-10.52,15.58-15.34l-4.07-11.33s-.1,.08-.15,.12l-22.15-11.75-12.32,12.2,11.2,21.64,11.91,4.46Z"/><path class="cls-9" d="M344.14,223.29c6.12-3.93,12.45-7.53,18.97-10.79l-1-11.97s-.09,.04-.13,.06l-18.4-17.13-15.06,8.59,5.22,23.8,10.4,7.43Z"/><path class="cls-9" d="M643.47,330.84c2.22,6.9,4.06,13.95,5.52,21.12l11.81,2.13s-.02-.1-.02-.14l21.31-13.34-4.4-16.77-24.34-1.12-9.87,8.12Z"/><path class="cls-9" d="M274.2,300.07c3.37-6.54,7.08-12.85,11.12-18.92l-6.86-9.89c-.05,.07-.1,.14-.15,.21l-24.34-5.6-8.75,14.97,16.42,18,12.57,1.22Z"/><path class="cls-9" d="M391.47,200.98c6.9-2.21,13.95-4.04,21.12-5.49l2.13-11.83s-.1,.02-.15,.02l-13.34-21.3-16.77,4.4-1.12,24.34,8.12,9.86Z"/><path class="cls-9" d="M256.49,349.36c1.57-7.23,3.53-14.29,5.83-21.18l-9.18-7.76c-.03,.09-.06,.17-.1,.26l-24.95,.89-4.57,16.72,20.52,13.14,12.44-2.07Z"/><path class="cls-9" d="M442.99,191.72c7.19-.33,14.45-.28,21.77,.18l5.13-10.89s-.07,0-.11-.01l-7.38-24.08-17.34-.09-7.38,23.22,5.31,11.67Z"/><path class="cls-9" d="M621.11,283.58c3.93,6.1,7.53,12.41,10.78,18.91l11.94-1s-.02-.05-.03-.08l17.19-18.47-8.59-15.06-23.8,5.22-7.48,10.46Z"/><path class="cls-9" d="M252.1,401.58c-.34-7.26-.28-14.61,.19-22.01l-10.91-5.14c0,.11-.02,.21-.03,.32l-23.8,7.3-.09,17.34,23.22,7.38,11.42-5.19Z"/><path class="cls-9" d="M544.36,213.78c6.49,3.35,12.76,7.02,18.79,11.01l9.86-6.85s-.06-.04-.08-.06l5.65-24.56-14.97-8.74-18,16.42-1.24,12.77Z"/><path class="cls-9" d="M495.13,196.11c7.16,1.55,14.16,3.49,20.98,5.76l7.75-9.16s-.05-.02-.08-.03l-.9-25.21-16.72-4.57-13.14,20.52,2.11,12.69Z"/><path class="cls-9" d="M587.32,243.64c5.37,4.89,10.47,10.06,15.27,15.49l11.3-4.06s-.03-.04-.05-.06l11.83-22.29-12.2-12.32-21.64,11.2-4.52,12.05Z"/><path class="cls-9" d="M601.04,526.78c-4.93,5.43-10.15,10.58-15.63,15.43l4.06,11.3c.07-.06,.14-.11,.2-.17l22.06,11.71,12.32-12.2-11.2-21.64-11.82-4.43Z"/><path class="cls-9" d="M630.87,483.75c-3.36,6.55-7.06,12.88-11.08,18.95l6.84,9.85c.05-.07,.1-.14,.15-.2l24.36,5.6,8.75-14.97-16.42-18-12.58-1.22Z"/><path class="cls-9" d="M561.1,560.64c-6.16,3.97-12.54,7.61-19.11,10.9l1,11.94c.09-.04,.18-.08,.27-.12l18.25,16.99,15.06-8.59-5.22-23.8-10.24-7.32Z"/><path class="cls-9" d="M664.4,377.05l-11.61,5.28c.34,7.21,.31,14.5-.15,21.84l10.87,5.12c0-.05,.01-.11,.02-.16l24.01-7.36,.09-17.34-23.22-7.38Z"/><path class="cls-9" d="M513.79,583.06c-6.98,2.25-14.11,4.11-21.36,5.58l-2.13,11.82c.12-.02,.24-.04,.36-.06l13.18,21.05,16.77-4.4,1.12-24.34-7.94-9.64Z"/><path class="cls-9" d="M648.48,434.48c-1.55,7.21-3.49,14.25-5.78,21.11l9.14,7.73c.02-.06,.04-.12,.07-.18l25.07-.9,4.57-16.72-20.52-13.14-12.55,2.09Z"/><path class="cls-9" d="M261.38,453.16c-2.24-6.98-4.09-14.11-5.55-21.36l-11.85-2.14c.02,.12,.04,.24,.06,.36l-21.04,13.18,4.4,16.77,24.34,1.12,9.64-7.93Z"/><path class="cls-9" d="M283.76,500.54c-3.98-6.18-7.62-12.58-10.91-19.18l-11.97,1c.05,.11,.1,.22,.15,.32l-16.93,18.19,8.59,15.06,23.8-5.22,7.27-10.17Z"/><path class="cls-9" d="M317.62,540.55c-5.46-4.96-10.63-10.21-15.5-15.73l-11.33,4.07c.08,.1,.16,.2,.24,.29l-11.63,21.92,12.2,12.32,21.64-11.2,4.38-11.68Z"/><path class="cls-9" d="M410.01,588.1c-7.28-1.57-14.38-3.53-21.31-5.85l-7.75,9.16c.12,.04,.24,.09,.35,.13l.89,24.8,16.72,4.57,13.14-20.52-2.05-12.3Z"/><path class="cls-9" d="M462.23,592.41c-7.29,.35-14.65,.31-22.08-.16l-5.13,10.88c.12,.01,.25,.03,.37,.04l7.28,23.73,17.34,.09,7.38-23.22-5.16-11.36Z"/><path class="cls-9" d="M360.68,570.45c-6.59-3.39-12.97-7.12-19.08-11.19l-9.87,6.86c.11,.08,.22,.16,.33,.24l-5.55,24.14,14.97,8.75,18-16.42,1.2-12.37Z"/></g><g><path class="cls-9" d="M308.13,221.9c6.2-5.25,12.67-10.16,19.39-14.69l-2.87-13.08c-.06,.04-.12,.07-.18,.11l-22.75-16.14-15.34,11.69,9.26,25.48,12.5,6.63Z"/><path class="cls-9" d="M357.1,190.36c7.31-3.46,14.81-6.53,22.48-9.18l.61-13.35c-.05,.02-.1,.03-.15,.05l-17.85-21.54-17.84,7.32,2.35,27.01,10.41,9.69Z"/><path class="cls-9" d="M671.93,351.89c1.46,7.93,2.48,15.97,3.07,24.09l12.72,4.04c0-.05,0-.11,0-.16l25.42-11.66-2.45-19.13-26.7-4.72-12.05,7.54Z"/><path class="cls-9" d="M268.95,265.04c4.66-6.73,9.65-13.17,14.97-19.28l-6.16-11.89c-.06,.07-.13,.14-.2,.21l-26.05-9.66-11.79,15.26,15.54,22.21,13.69,3.15Z"/><path class="cls-9" d="M412.52,172.52c7.93-1.45,15.97-2.46,24.09-3.04l4.05-12.75c-.06,0-.11,0-.17,0l-11.66-25.41-19.13,2.45-4.72,26.7,7.54,12.04Z"/><path class="cls-9" d="M242.35,316.88c2.77-7.75,5.94-15.26,9.47-22.53l-9.01-9.88c-.05,.09-.1,.18-.14,.27l-27.65-2.59-7.44,17.8,20.76,17.44,14.02-.5Z"/><path class="cls-9" d="M470.68,169.69c7.98,.66,15.99,1.76,24,3.31l7.22-11.28s-.08-.02-.12-.03l-4.7-27.62-19.12-2.58-11.47,24.56,4.18,13.64Z"/><path class="cls-9" d="M654.03,296.54c3.46,7.29,6.53,14.77,9.18,22.41l13.31,.61s-.02-.06-.03-.09l21.61-17.91-7.32-17.84-27.01,2.35-9.75,10.47Z"/><path class="cls-9" d="M230.02,373.86c.67-8.06,1.78-16.15,3.36-24.25l-11.3-7.23c-.03,.12-.06,.23-.08,.35l-27.3,4.64-2.58,19.12,24.56,11.47,13.34-4.09Z"/><path class="cls-9" d="M579.36,208.55c6.68,4.62,13.08,9.57,19.16,14.84l11.86-6.14s-.06-.05-.08-.08l9.75-26.29-15.26-11.79-22.21,15.54-3.2,13.92Z"/><path class="cls-9" d="M527.58,182c7.68,2.74,15.12,5.88,22.32,9.36l9.86-8.99s-.05-.03-.08-.04l2.62-27.95-17.8-7.44-17.44,20.76,.51,14.3Z"/><path class="cls-9" d="M622.48,247.65c5.23,6.17,10.11,12.6,14.63,19.27l13.05-2.86s-.03-.05-.05-.07l16.24-22.9-11.69-15.34-25.48,9.26-6.71,12.64Z"/><path class="cls-9" d="M597.05,561.98c-6.22,5.29-12.71,10.22-19.45,14.79l2.86,13.05c.08-.05,.17-.1,.25-.16l22.66,16.07,15.34-11.69-9.26-25.48-12.4-6.58Z"/><path class="cls-9" d="M636.12,518.78c-4.65,6.74-9.63,13.19-14.94,19.32l6.13,11.84c.06-.07,.13-.14,.19-.21l26.07,9.67,11.79-15.26-15.54-22.21-13.7-3.15Z"/><path class="cls-9" d="M548.13,593.61c-7.36,3.5-14.93,6.6-22.65,9.29l-.61,13.32c.1-.03,.21-.06,.31-.1l17.7,21.36,17.84-7.32-2.35-27.01-10.25-9.54Z"/><path class="cls-9" d="M688.4,405.87l-13.57,4.16c-.65,8-1.74,16.04-3.29,24.08l11.25,7.2c.01-.06,.03-.12,.04-.18l27.55-4.68,2.58-19.12-24.56-11.47Z"/><path class="cls-9" d="M492.73,611.57c-8.02,1.48-16.15,2.51-24.36,3.1l-4.04,12.73c.13,0,.27,0,.4-.02l11.52,25.11,19.13-2.45,4.72-26.7-7.37-11.77Z"/><path class="cls-9" d="M662.6,466.94c-2.74,7.73-5.89,15.22-9.4,22.46l8.98,9.84c.03-.06,.07-.12,.1-.18l27.78,2.6,7.44-17.8-20.76-17.44-14.14,.51Z"/><path class="cls-9" d="M232.88,432.1c-1.47-8.02-2.49-16.15-3.07-24.36l-12.76-4.05c0,.14,0,.27,.02,.41l-25.1,11.52,2.45,19.13,26.7,4.72,11.77-7.37Z"/><path class="cls-9" d="M250.78,487.57c-3.5-7.39-6.61-14.97-9.29-22.72l-13.35-.61c.04,.12,.08,.25,.12,.38l-21.29,17.64,7.32,17.84,27.01-2.35,9.48-10.18Z"/><path class="cls-9" d="M282.4,536.56c-5.31-6.26-10.27-12.79-14.85-19.57l-13.08,2.87c.08,.12,.15,.24,.22,.36l-15.97,22.52,11.69,15.34,25.48-9.26,6.5-12.25Z"/><path class="cls-9" d="M377.52,602.26c-7.8-2.77-15.36-5.96-22.67-9.5l-9.86,9c.13,.06,.25,.13,.37,.2l-2.57,27.49,17.8,7.44,17.44-20.76-.5-13.86Z"/><path class="cls-9" d="M434.51,614.5c-8.09-.66-16.21-1.76-24.33-3.34l-7.22,11.27c.13,.03,.27,.06,.4,.09l4.63,27.22,19.12,2.58,11.47-24.56-4.07-13.27Z"/><path class="cls-9" d="M325.62,575.72c-6.79-4.69-13.28-9.72-19.45-15.08l-11.87,6.15c.11,.1,.22,.21,.33,.31l-9.58,25.84,15.26,11.79,22.21-15.54,3.1-13.47Z"/></g></g><g id="etch_new"><circle class="cls-9" cx="454.72" cy="389.73" r="193.55"/><circle class="cls-9" cx="454.72" cy="389.73" r="187.99"/></g><g id="hex_bolts"><polygon class="cls-4" points="625.25 112.95 601.73 99.66 601.49 72.65 624.75 58.93 648.27 72.22 648.52 99.23 625.25 112.95"/><polygon class="cls-7" points="279.43 58.93 255.91 72.22 255.66 99.23 278.93 112.95 302.45 99.66 302.7 72.65 279.43 58.93"/><polygon class="cls-3" points="77.25 378.4 77.25 405.42 100.64 418.92 124.04 405.42 124.04 378.4 100.64 364.9 77.25 378.4"/><polygon class="cls-5" points="279.43 724.89 255.91 711.6 255.66 684.59 278.93 670.87 302.45 684.16 302.7 711.17 279.43 724.89"/><polygon class="cls-2" points="625.25 670.87 601.73 684.16 601.49 711.17 624.75 724.89 648.27 711.6 648.52 684.59 625.25 670.87"/><polygon class="cls-6" points="780.15 378.4 780.15 405.42 803.54 418.92 826.93 405.42 826.93 378.4 803.54 364.9 780.15 378.4"/></g><g id="STORY_PORTAL"><g id="Portal" class="cls-15"><path class="cls-1" d="M257.77,395.78c20.98-2.44,35.68,8.52,36.79,26.93,.9,21.05-21.71,29.84-43.21,26.93-.08,2.28,.43,5.39-.85,7.29,1.51,.18,.54,11.31,.65,12.04-.75,7.56,.18,12.27,13.83,9.73,7.8,.12-18.62,16.59-21.75,8.96-.65,.91-3.8-.33-4.71-.31-6.35,5.4-20.77,1.45-22.67-5.39,19.1,1.92,11.39-25.7,11.55-27.88,.58-7.99-1.79-10.17-6.42-12.67-1.03-.56,6.14-5.41,6.42-6.34,.16-3.16,.06-7.41,.43-10.45-.96-5.19,2.3-17.33-4.7-18.69-1.65,.45-4.55,.02-6.23-.32,6.79-5.11,16.11-11.46,22.91-4.75,5.64-3.7,11.51-4.61,17.97-5.07Zm-.86,10.14c-7.09,5.07-4.82,1.7-6.42,8.87,.72,.48,0,5.94,0,6.65,.71,2.55,.46,7.71,.85,10.14,.11,1.34-.53,2.64-.85,3.8-.75,1.57,5.94,2.71,9.41,2.22,11.87-2.52,9.2-8.02,9.41-17.42,2.68-7.92-6.76-16-12.4-14.26Z"/><path class="cls-1" d="M335.09,395.26c16.34-.21,28.59,13.34,32.51,26.45-.48,.81,2.29,5.56,2.03,9.11,1.32,2.49,4.43,7.2,7.81,9.11-1.17,1.44-8.42,5.67-6.95,7.6-3.06,14.75-2.78,28.38-20.1,38.02-7.7,4.94-9.12,4.3-15.62,4.28-21.41-1.73-29.4-18.58-32.94-37.7-.14-1.58,.6-3.07,0-4.6,2.07-1.6-5.84-5.99-6.52-6.97,11.7-9.47,6.9-32.11,24.6-38.65,2.27-5.29,8.61-5.54,15.19-6.65Zm-8.13,14.57c1.19,3.08-1.02,20.62-.43,22.49-1.24,1.81,2.38,3.85,6.52,7.37-6.93,6.21-6.82,6.87-6.95,13.07,.48,6.22-.12,13.55,.86,20.04,2.02,11.4,22.64,6.26,18.4-3.32,1.71-2.06,.14-15.29,.43-16.39-.68-6.51,1.51-6.3-6.95-13.15,4.94-4.41,6.54-9.67,6.53-10.93,.33-2.02,.48-6.16,0-8.16,.6-.62,.21-2.09,0-2.77,.41-4.59,.38-6.14-3.21-11.56-4.68-.34-11.96-.87-15.19,3.33Z"/><path class="cls-1" d="M426.64,394.66c12.62-1.09,30.87,12.78,25.88,22.97,2.77,8.4-4.1,13.21-11.87,20.04,4.48,3.07,11.26,4.45,11.44,6.97,1.24,2.14,2.41,3.35,2.14,6.89-.17,.39,.47,8.3-.86,9.11,.83,3.53-4.54,24.28,7.65,17.9h.43v.32c.23,1.63-1.38,1.48-1.28,2.53-1.17,2.81-7.53,7.81-15.25,8.48-6.15-.32-16.02-7.84-14.01-14.41-.78-.83,.63-12.04,0-13.54-.1-1.1,.21-7.89-.86-13.54,1.13-2.41-12.22-3.04-17-2.77,.06,3.83,.03,12.92-.43,16.63,.36,2.8,.98,6.82-.43,9.74,.05,.41,1.28,3.48,.43,3.72-.24,3.5,3.76,7.2,6.84,6.97,1.16,.59,4.34-2.34,5.03-1.58-12.13,17.34-17.04,1.4-30.48,8.16-2.81,2-26.27-12.01-9.84-7.21,.68-.35,3.49,.03,3.42-.63,1.25-1.16,2.51-5.4,1.71-6.57,.07-1.42-.34-8.51,0-10.06-.36-4.95,1.13-13.12,0-17.9,1.83-.98-5.58-5.36-5.88-6.02-.11-.08-.61-.4-.43-.63,6.34-5.58,7.05-6.24,6.74-11.01,.72-.82,.27-15.36-.43-17.27,2.46-9.31-1.65-11.94-11.44-7.21,5.42-6.1,15.67-12.24,23.74-5.07,11.22-6,14.93-4.08,25.03-4.99Zm-9.73,10.69c-.75-.69-2.84,.27-3.85,0v3.17c-.06,.41-.76,1.3,0,1.5-.46,1.75,.04,17.73-.43,18.85-.17,6.97,1.8,5.07,8.45,5.7,11.58-1.86,8.45-9.68,8.98-16.32,1.47-10.48-3.35-14.1-13.15-12.91Z"/><path class="cls-1" d="M527.34,392.79c11.06-.82,8.11,5.23,9.73,6.23-4.63,7.2,7.37,16.38-9.3,17.74,2.88-2.84,4.11-5.84-2.89-5.7-1.51-.11-9.86,.16-11.24,.32-3.86-.14-3.76-.28-4.04,3.01-.15,2.05-2.53,20.57,6.95,27.33-8.25,9.59-7.25,7.01-6.52,17.57-.77,5.56-1.01,9.29,0,14.49l-.86,5.7c2.83,3.16,6.66,5.28,11.45,2.69-5.26,6.78-15.65,10.46-22.03,5.15-6.79,4.02-14.8,2.37-22.78-5.15,13.55,2.72,11.08-2.51,11.87-12.04-2.25-10.04,4.48-20.39-6.52-27.79-.54-.44,11.04-6.42,6.1-9.28,.76-1.77,.18-18.79,0-19.56,1.42-3.44-5.42-1.95-6.1-2.46-.22-.6-2.31,.02-2.75,0-.88-.1-5.48,.07-6.43,0-5.67-.3-3.84,3.9-1.28,5.7-3.73,1.14-8.51-1.91-10.48-5.39,3.39-5.67-.16-5.18-.86-10.53,0-3.54,3.53-5.86,10.59-6.97-.6,1.24-2.31,2.16-2.03,3.01,.94,4.61,39.11,2.9,43.7,2.77,5.35,.02,24.33,1.02,15.74-6.86Z"/><path class="cls-1" d="M649.38,397.59c6.48,0,11.8,2.88,15.93,8.63-13.88-5.51-11.64,3.34-12.08,11.56-.63,2.51-1.05,14.56-.86,15.05,7.37,14.94,12.04,2.08,.42,17.03-.61,1.15,0,8.95,0,8.95,0,0,.84,17.08,.86,17.98,1.86,14.46,20.64,2.95,15.85-8.72-.32-.82,13.13-.31,13.55-.34l6.95-.63c.93-.11,3.05,7.88,2.93,8.83-2.13,17.75-11.4,13.31-32.54,13.75-9.56,.2-14.57-.33-20.65-.76-7,1.3-9.01-.41-17.06-4.5-1.19-.53,3.52-1.11,3.93-1.54,4.76-.67,3.14-2.02,3.18-4.18,.08-4.9-.16-10.33-.43-15.36,.44-.29-.67-11.31,0-13.15-11.85-13.83,3.24-7.78-.43-20.51,.87-1.88,.44-14.13,0-14.41,1.15-6.99-4.22-14.41-11.66-8.71,.61-5.15,10.05-8.38,16.47-8.64,7.61,2.43,8.34,1.83,15.62-.32Z"/><path class="cls-1" d="M586.88,395c4.1-.69,10.06,3.65,11.98,8.87-2.57-1.76-8.04-4.79-10.69-.71,2.15,9.69,9.31,32.39,9.31,32.39,5.56,7.57,9.65,.7,.85,11.17l8.02,34.69c1.72,3.13,5.97,3.82,8.8,1.25l.77,.63c-6.84,6.87-11.57,7.69-18.44,3.98-9.49,3.77-14.91,4.19-21.6-3.96,16.05,5.28,6.83-15.61,5.24-21.22,.59-.7-4.29-.15-4.39-.32-3.46-.25-9-.09-12.41-1.03-6.74,1.91-5.82,14.64-8.34,17.03-1.47,4.99,.98,9.27,7.49,5.54-1.19,4.88-12.47,9.52-18.07,3.64-5.9,4.95-20.05,1.51-19.89-3.64,11.9,6.14,13.77-8.18,16.36-15.05,1.64-7.1,4.78-14.14,6.2-21.54-11.43-10.76,3.95-7.02,5.67-18.06,4.33-16.02,13.48-28.69-2.14-25.5,17.23-16.7,17.26,2.23,35.29-8.16Zm-14.11,27.48c-.64,3.91-5.81,16.73-9.3,26.53,1.61-.2,11.88,2,15.51,.95-1.1-6.85-4.21-22.91-6.2-27.48Z"/></g><g id="STORY" class="cls-14"><path class="cls-1" d="M338.63,292.71c9.57-.89,18.57,11.31,23.23,3.67,7.23-8.91,3.86,1.83,3.54,5.83l.83,4.63c-.54,.76,1.33,20.23-1.56,19-1.08,.28-3.35,.38-4.48,.32-7.59-.53-9.85,2.53-9.17-6.15-.63-5.45,2.64-10.13-3.65-14.77-28.02-10.32-24.79,27.14,1.25,23.62,.83,0,3.23,7.66,3.23,7.66,18.06,11.84,20.21,20.28,14.79,34-9.62,19.87-35.24,23.92-52.82,8.3-6.12-3.24-7.79-6.06-8.88-10.7,.19-4.26-.62-17.55,1.14-17.8,3.59,.99,16.73-5.52,15.34,2.47,0,2.22,0,5.46,0,7.66-4.79,17.09,27.41,26,27.61,2.71-.42-3.42-8.49-12.51-11.98-12.85-2.56-.03-8.41-.39-10.83-.96,.14-.05-.83-2.6-.83-2.71,.11-5.83-10.1-8.85-14.38-13.49-4.28-4.64-4.67-7.36-4.77-14.45-.27-19.45,21.59-26.85,32.37-26.02Z"/><path class="cls-1" d="M439.48,290.01c5.54,1.25,9.88,3.16,8.33,4.74,1.02,.67,.03,.93,0,1.59,2.39,1.49,.34,3.72-.87,6.02,2.96,6.37,4.77,11.31-7.05,12.62,8.03-7.78-7.73-5.22-13.04-5.39-1.09,.26-4.83-.69-4.95,.94-.47,2.43-.24,6.25-.29,8.73-.45,8.34-1.37,11.6,6.77,19.08-10.83,9.05-4.99,12.94-6.77,22.96-.03,.1,.46,10.73,.4,10.86,.02,.39-1.21,5.75-.42,5.99,1.31,1.13,3.68,3.86,5.95,3.52,14.83-3.87-8.86,8.34-10.19,6.66-8.02-3.13-6.39-1.23-15.55-.63-.5,1.54-20.64-9.64-8.75-6.58,6.89,1.24,6.97-4.18,7.12-9.24-.31-2.18,.05-10.32-.35-12.77-.34-6.7,3.15-14.46-4.91-19.81-.57-.48-.48-1.29,.19-1.66,3.18-1.42,5.38-3.44,4.76-6.44,1.01-1.85,.51-5.38-.01-7.29-.08-.15,.91-14.63-1.2-14.34-5.07-.12-13.4-1.02-17.51,.34-1.04,2.19,.67,3.81,1.98,5.39-5.81,.06-13.12-4.45-8.44-10.01-4.5-5.94-3.29-12.4,7.71-12.91-8.5,7.64,9.91,5.51,14.12,6.03,1.97-.1,21.59-.87,24.81-.32,.94,.11,10.95,.07,10.95,.32,9.97-.24,11.68-4.91,7.19-8.39Z"/><path class="cls-1" d="M571.42,293c12.47-1.08,25.57,10.45,25.21,23-.36,12.55-3.95,13.19-11.56,20.07,4.34,3.06,10.98,4.45,11.15,6.98,4.16,4.72,.78,15.31,.83,21.09,1.6,2.02,.13,19.01,10.32,12.85,1.74,5.58-20.47,17.46-26.46,6.9-6.56-3.6-5.44-9.84-4.9-15.39,.18-5.51-.85-11.77,0-17.29-1.12-8.14-6.4-7.08-17.82-7.22v10.71c-.07,1.38-.29,18.96-.42,21.65,3.68,6.1,7.07,4.9,11.56,3.17-4.6,6.71-14.62,12.39-22.71,4.68-7.81,7.01-14.94,2.84-22.71-4.99,7.39,1.26,11.83,2.62,11.15-6.58,.09-4.63,0-14.35,0-19.19-.51-12.92,2.83-6.12-6.15-14.83,6.19-5.59,6.86-6.27,6.56-11.02l.42-4.05c3.48-22.02-1.66-25.17-11.98-20.46,5.25-6.07,15.26-12.28,23.13-5.08,10.73-5.71,14.66-4.64,24.38-5Zm-9.9,10.39c-.77,.17-2.56,.38-3.33,.32,.21,2.19-.92,21.19-.42,23.55-1.12,6.13,2.98,5.51,8.23,5.71,8.16-1.4,8.53-5.5,8.75-10.07,2.32-9.13-1.2-21.36-13.23-19.51Z"/><path class="cls-1" d="M630.91,293.79c3.49-.09,8.86,4.17,11.25,9.5-4.01-1.61-2.48-.28-6.66,1.12,.52,3.76,3.42,6.95,5.21,11.34,4.2,7.31,2.95,6.1,8.75-4.28,1.64-1.59,2.81-4.68,3.12-6.74-.37-1.72-3.18-3.17-3.54-.32-.3,.34-1.13,.35-1.56,.32,.84-5.52,5.81-8.1,11.25-9.75,1.79-.35,4.1,1.62,6.31,1.55,4.76-5.39,15.64,5.96,15.36,8.21-1.46-1-2.85-1.51-4.17-1.51-.55,.49-5.01,4.53-5.1,5.08-1.46,2.72-5.1,7.82-7.19,10.23-1.59,4.19-4.58,5.41-7.29,12.53-.21,2.63,1.05,3.71,5.21,7.46-11.23,9-8.51,10.49-8.75,21.18,0,4.4,0,10.11,0,14.51,2.34,3.27,3,7.31,10.31,5.07-5.45,6.85-11.27,7.78-19.07,9.04-.12-.04-7.44-.84-10.31-.8-8.01-1.55-15.65-5-18.13-9.44,10.52,1.95,14.21,4.14,12.4-7.46,.02-1.67,.89-26.34-9.27-31.72-.5-.32,4.63-4.92,4.69-5.16-.98-2.6-8.83-16.82-9.79-18.8-1.93-1.63-4.76-8.56-7.81-11.74l-5.31,1.19c-.43-1.18,9.49-10.5,16.66-9.83,7.5,4.7,6.08-1.15,13.44-.79Z"/><path class="cls-1" d="M481.41,293.32c16.11-.17,27.87,13.49,31.67,26.49,1.66,8.27,2.44,10.82,9.59,18.24-1.28,.97-6.55,5.56-7.19,6.74,.37,.5,.42,1.31,0,1.82-1.15,12.95-10.9,42.84-34.38,41.4-20.18-.36-29.92-21.88-32.08-37.75,.23-9,.92-5.17-6.36-11.58,9.99-9.28,4.88-10.53,10.42-23.48,5.51-11.45,15.93-20.77,28.34-21.89Zm-8.33,17.05c.9,4.01-.09,15.53-.42,19.51-.13,2.79,2.1,3.99,6.77,7.93-3.54,3.68-6.62,6.24-6.35,7.3-.55,8.42-.53,17.25,.42,25.85,2.98,9.84,16.57,8.43,19.17-1.82-.76-5.92-1.3-12.2-.83-17.92-.66-6.49,1.49-6.3-6.77-13.16,6.74-6.73,6.43-5.74,6.36-10.94,.3-2.26,.51-6.84,.42-9.12-.46-1.6-.74-4.22,0-5.79-.28-1.64-4.38-7.3-4.38-7.3-5.09-1.67-13.81-.42-14.38,5.47Z"/></g><g id="THE" class="cls-13"><path class="cls-1" d="M222.45,362.81c-.35-2.76,1.75-3.2,1.75-3.2l2.59-.06c1.11,0,2.45,.28,4.04,.84,3.97-1.63,7.67-1.48,8.5,2.38h-.21c-3.88-2.62-4.53,.83-3.61,2.77-.32,.46,.03,3.65,0,4.23,2.6,.01,9.35,0,9.35,0l7.86,.14,.64-.14c3.01,.71,5.05-.18,7.82-2.24h.64c5.38,3.42,17.02,2.25,17.64,2.24l4.04,.28,2.34-1.26c.64-.93,.5-1.22-.43-2.22l.21-.14h.21c4.45,3.04,7.03,4.65,3.19,7.26,2.98,2.42,1.6,4.25-3.61,6.93l-.21-.14c2.27-3.47-.72-3-5.74-3.05-1.69,.16-7.3-.01-9.14,.14h-2.76s-3.57,.61-5.95,2.1c-.48-.13-3.4-1.96-3.4-1.96,0,0-4.26-.14-5.91-.14h-1.49c-1.27-.35-8.29,0-8.29,0-1.48,.02-5.53,0-5.53,0h-1.49v2.52s-.11,2.04,0,2.8c.35,2.44,1.91,2.68,3.83,1.26h.21c-.07,2.39-3.52,4.74-7.65,2.8-3.1,2.35-7.95,1.05-8.71-2.52h.21c1.67,1.1,4.14,1.1,4.04-.84-.27-.59,.05-1.48,0-1.85-.38-.74-.42-10.56,0-10.57-.2-.3-.35-4.39,0-5.73,0,0,.39-1.79-.76-2.76-1.38-1.17-4.22,.15-4.22,.15Z"/><path class="cls-1" d="M223.25,327.71c0-1.45,1.28-2.18,3.85-3.91l1.66-.28c-1.68,1.22-1.99,1.14-1.88,2.35l2.85,1.09c-.05-.62,6.96-.17,6.96-.17,3.83-.13,12.37,.39,13.44,.31l5.47-2.74c.79,.21,2.48,1.12,5.08,2.74,0,0,6.82-.2,8.84,0,0,0,6.45-.54,8.14-.14l.74-.17,.22,.17c1.38-.26,3.6-.22,4.99,0,4.3-.24,3.68-1.64,2.89-3.44h.26c2.57,1.16,3.85,1.61,3.85,3.1,1.06,.94,.62,3.08-.48,4.28,1.43,2.71,1.34,5.7-3.63,7.21,.15-.6,.71-1.67,.53-2.29,.06-.85-6.49-1.32-8.62-.48-.38-.2-5.78-.28-5.78-.28-1.24,.25-12.11,.32-12.92,.28,0,0,.07,6.24,0,6.46l.44,.75c.49-.09,1.47-.18,1.93,0h15.8l1.27-.14s6.16-.54,8.32-.75l-.7-.78,.26-.92c-.38,0-.63-.25-.74-.75,4.92,1.2,5.8,4.91,3.11,7.52,.82,1.1,1.23,1.91,1.23,2.43v.62l-.26,.14v.17c.02,.32-.22,.76-.22,.76,.07,1.4-1.11,2.25-3.63,3.7h-.22l.48-2.5c-.82-.3-1.88-.89-1.88-.89l-.74-.14c-.2,.04-7.88-.34-7.88-.34l-10.77,.34h-2.67s-2.51,.04-3.11,0c0,.19-1.28,.89-3.85,2.13h-.26c-4.59-2.5-4.21-2.15-8.36-2.13,0,0-3.26,.17-4.07-.17-.47,.12-9.85,.17-9.85,.17-5.59-.09-6.49,1.28-4.55,3.54h-.48c-4.04-2.6-6.16-4.99-2.67-7.81-3.89-2.29-2.39-6.06,3.15-7.21,.19,.23-.83,1.33-.96,1.54,.17,1.88,3,1.27,4.82,1.23,4.14,.07,9.24,.13,10.29,.42,2.16-.34,5.82,.28,7.88-.28,.26-1.46,.45-3.27,0-4.75,.11-1.57,.37-2.78-3.33-2.32l-.22-.14v-.14c-1.5,.22-4.01,.19-5.52,0l-.74,.28c-2.96-.32-12.13-.11-12.92,0-.52,.77,.21,2.06,.7,2.77-1.01,0-1.6-.61-2.41-1.68-3.18-1.3-3.04-3.74-1.71-5.68-.93-.99-1.4-2-1.4-3.05Z"/><path class="cls-1" d="M225.14,295.1v-.14c.29,0,.43-.15,.43-.45,2.02,.13,8.38-.14,8.38-.14,2.5,.59,11.53-.86,12.56,.59-.12,.4-.29,1.3,0,1.68-.21,.57-.2,1.69,0,2.26-1.53,.28-3.94-.14-5.43,.14,0,0-3.34-.07-4.1-.14-3.47-.01-5.98,6.45-2.56,7.75v.14c5.75,.19,14.23,.28,14.23,.28,0,0,5.35-.24,3.67-2.1,1.81-2.3-2.9-4.03-5.43-1.85h-.38c.64-3.55,6.36-3.78,9.27-2.27,.68,0,1.03-.19,1.03-.56,4.19-1.06,7.67,.7,7.56,3.27h-.21c-3.48-2.47-4.1,1.82-4.1,1.82h-.17c.2,1.59,.68,2.16,2.14,1.54l4.49,.14s4.8-.04,5.43,.14c0,0,3.27-.02,4.32-.14l3.03-.14s1.31-.11,1.45-.14c0,0,1.79-.25,2.56-.25,1.75-2.74,.5-4.7-2.99-7.49l-2.35-.14s-2.89,0-2.99,0c0,0-1.61-.11-1.75-.14l-2.82,.28-.81-.14-.21-1.99c.09-.53,.43-2.4,.43-2.4v-.14l1.5,.28,6.67-.14c4.12-1.77,13.46,6.04,13.37,9.06l-.26,.14c.88,2.57-.53,5.43-2.99,7.07,3.65,2.38,.44,5.55-3.25,7.75l-.21-.14c2.54-1.88,1.15-4.29-2.35-3.66l-5.85,.14c-.49,0-2.99-.24-3.38,0-.6-.05-8.15-.26-9.53,0l-3.46-.14h-.17c0,.52-3.08,2.27-3.08,2.27h-.21l-4.06-2.13c-.82,.02-10.55,0-10.55,0-.03,.05-10.71,.07-10.17,.14l-1.07,2.26,1.54,1.4v.14c-2.83,.43-8.92-5.67-3.89-7.77-3.8-3.66-2.44-8.38-2.35-9.59l2.56-3.94c0-.54-1.15-1.34-3.46-2.4Z"/></g></g></svg>